<?xml version="1.0" encoding="UTF-8" standalone="no"?>
<!-- Created with Inkscape (http://www.inkscape.org/) -->

<svg
   xmlns:dc="http://purl.org/dc/elements/1.1/"
   xmlns:cc="http://creativecommons.org/ns#"
   xmlns:rdf="http://www.w3.org/1999/02/22-rdf-syntax-ns#"
   xmlns:svg="http://www.w3.org/2000/svg"
   xmlns="http://www.w3.org/2000/svg"
   xmlns:sodipodi="http://sodipodi.sourceforge.net/DTD/sodipodi-0.dtd"
   xmlns:inkscape="http://www.inkscape.org/namespaces/inkscape"
   width="1024"
   height="1024"
   id="svg2"
   version="1.1"
   inkscape:version="0.48.2 r9819"
   sodipodi:docname="icon_android.svg"
   inkscape:export-filename="/Users/Alvaro/Dropbox/projects/day-map/asset_sources/icon_1024_android.png"
   inkscape:export-xdpi="90"
   inkscape:export-ydpi="90">
  <sodipodi:namedview
     id="base"
     pagecolor="#61d8ff"
     bordercolor="#666666"
     borderopacity="1.0"
     inkscape:pageopacity="0"
     inkscape:pageshadow="2"
     inkscape:zoom="0.5"
     inkscape:cx="196.54537"
     inkscape:cy="431.35488"
     inkscape:document-units="px"
     inkscape:current-layer="layer1"
     showgrid="false"
     inkscape:window-width="1280"
     inkscape:window-height="752"
     inkscape:window-x="0"
     inkscape:window-y="22"
     inkscape:window-maximized="1"
     showguides="true"
     inkscape:guide-bbox="true"
     inkscape:snap-bbox="false"
     inkscape:snap-midpoints="true"
     inkscape:snap-smooth-nodes="true"
     inkscape:object-nodes="true"
     inkscape:object-paths="false"
     inkscape:bbox-nodes="false"
     inkscape:snap-global="false"
     inkscape:snap-nodes="false" />
  <defs
     id="defs4">
    <inkscape:path-effect
       effect="spiro"
       id="path-effect14106"
       is_visible="true" />
    <inkscape:path-effect
       effect="spiro"
       id="path-effect14098"
       is_visible="true" />
    <inkscape:path-effect
       effect="spiro"
       id="path-effect14094"
       is_visible="true" />
    <inkscape:perspective
       sodipodi:type="inkscape:persp3d"
       inkscape:vp_x="0 : 960 : 1"
       inkscape:vp_y="0 : 1000 : 0"
       inkscape:vp_z="1280 : 960 : 1"
       inkscape:persp3d-origin="640 : 640 : 1"
       id="perspective7604" />
    <inkscape:path-effect
       effect="skeletal"
       id="path-effect4815"
       is_visible="true"
       pattern="m -3800.9299,-408.26579 c -0.2502,0.9437 -1.2181,1.5059 -2.1618,1.2557 -0.9437,-0.2503 -1.5059,-1.2181 -1.2557,-2.1618 0.2502,-0.9437 1.2181,-1.5059 2.1618,-1.2557 0.9422,0.2498 1.5044,1.2152 1.2567,2.158"
       copytype="repeated"
       prop_scale="1"
       scale_y_rel="false"
       spacing="1"
       normal_offset="0"
       tang_offset="0"
       prop_units="false"
       vertical_pattern="false"
       fuse_tolerance="0" />
    <inkscape:path-effect
       effect="skeletal"
       id="path-effect4807"
       is_visible="true"
       pattern="m -3802.6799,-409.26579 c -0.2502,0.9437 -1.2181,1.5059 -2.1618,1.2557 -0.9437,-0.2503 -1.5059,-1.2181 -1.2557,-2.1618 0.2502,-0.9437 1.2181,-1.5059 2.1618,-1.2557 0.9422,0.2498 1.5044,1.2152 1.2567,2.158"
       copytype="repeated"
       prop_scale="1"
       scale_y_rel="false"
       spacing="1"
       normal_offset="0"
       tang_offset="0"
       prop_units="false"
       vertical_pattern="false"
       fuse_tolerance="0" />
    <inkscape:path-effect
       effect="skeletal"
       id="path-effect4799"
       is_visible="true"
       pattern="m 3.4769703,2.2212703 c -0.2502,0.9437 -1.2181,1.5059 -2.1618,1.2557 -0.94370004,-0.2503 -1.50590004,-1.2181 -1.25570004,-2.1618 0.2502,-0.94370004 1.21810004,-1.50590004 2.16180004,-1.25570004 0.9422,0.2498 1.5044,1.21520004 1.2567,2.15800004"
       copytype="repeated"
       prop_scale="1"
       scale_y_rel="false"
       spacing="1"
       normal_offset="0"
       tang_offset="0"
       prop_units="false"
       vertical_pattern="false"
       fuse_tolerance="0" />
    <inkscape:path-effect
       effect="skeletal"
       id="path-effect4771"
       is_visible="true"
       pattern="m 3.4769703,2.2212703 c -0.2502,0.9437 -1.2181,1.5059 -2.1618,1.2557 -0.94370004,-0.2503 -1.50590004,-1.2181 -1.25570004,-2.1618 0.2502,-0.94370004 1.21810004,-1.50590004 2.16180004,-1.25570004 0.9422,0.2498 1.5044,1.21520004 1.2567,2.15800004"
       copytype="repeated"
       prop_scale="1"
       scale_y_rel="false"
       spacing="1"
       normal_offset="0"
       tang_offset="0"
       prop_units="false"
       vertical_pattern="false"
       fuse_tolerance="0" />
    <inkscape:path-effect
       effect="curvestitching"
       id="path-effect4741"
       is_visible="true"
       count="5"
       startpoint_edge_variation="0;1"
       startpoint_spacing_variation="0;1"
       endpoint_edge_variation="0;1"
       endpoint_spacing_variation="0;1"
       strokepath="m -2680.465,3012.3032 57.4524,0"
       prop_scale="1"
       scale_y_rel="false" />
    <inkscape:path-effect
       effect="rough_hatches"
       id="path-effect4739"
       is_visible="true"
       direction="-2651.7388,3007.3032 , 14.3631,0"
       dist_rdm="75;1"
       growth="0"
       do_bend="true"
       bender="-2651.7388,3012.3032 , 5,0"
       bottom_edge_variation="3.78302;1"
       top_edge_variation="3.78302;1"
       bottom_tgt_variation="0;1"
       top_tgt_variation="0;1"
       scale_bf="1"
       scale_bb="1"
       scale_tf="1"
       scale_tb="1"
       top_smth_variation="0;1"
       bottom_smth_variation="0;1"
       fat_output="true"
       stroke_width_top="1"
       stroke_width_bottom="1"
       front_thickness="1"
       back_thickness="0.25" />
    <inkscape:path-effect
       effect="rough_hatches"
       id="path-effect4737"
       is_visible="true"
       direction="-2651.7388,3007.3032 , 14.3631,0"
       dist_rdm="75;1"
       growth="0"
       do_bend="true"
       bender="-2651.7388,3012.3032 , 5,0"
       bottom_edge_variation="3.78302;1"
       top_edge_variation="3.78302;1"
       bottom_tgt_variation="0;1"
       top_tgt_variation="0;1"
       scale_bf="1"
       scale_bb="1"
       scale_tf="1"
       scale_tb="1"
       top_smth_variation="0;1"
       bottom_smth_variation="0;1"
       fat_output="true"
       stroke_width_top="1"
       stroke_width_bottom="1"
       front_thickness="1"
       back_thickness="0.25" />
    <inkscape:path-effect
       effect="knot"
       id="path-effect4735"
       is_visible="true"
       interruption_width="3"
       prop_to_stroke_width="true"
       add_stroke_width="true"
       add_other_stroke_width="true"
       switcher_size="15"
       crossing_points_vector="" />
    <inkscape:path-effect
       effect="sketch"
       id="path-effect4733"
       is_visible="true"
       nbiter_approxstrokes="5"
       strokelength="100"
       strokelength_rdm="0.3;1"
       strokeoverlap="0.3"
       strokeoverlap_rdm="0.3;1"
       ends_tolerance="0.1;1"
       parallel_offset="5;1"
       tremble_size="5;1"
       tremble_frequency="1"
       nbtangents="5"
       tgt_places_rdmness="1;1"
       tgtscale="10"
       tgtlength="100"
       tgtlength_rdm="0.3;1" />
    <inkscape:path-effect
       effect="curvestitching"
       id="path-effect4729"
       is_visible="true"
       count="5"
       startpoint_edge_variation="0;1"
       startpoint_spacing_variation="0;1"
       endpoint_edge_variation="0;1"
       endpoint_spacing_variation="0;1"
       strokepath="m -2680.465,3012.3032 57.4524,0"
       prop_scale="1"
       scale_y_rel="false" />
    <inkscape:path-effect
       effect="vonkoch"
       id="path-effect4727"
       is_visible="true"
       ref_path="m -2680.465,3012.3032 57.4524,0"
       generator="m -2680.465,3031.2183 19.1508,0 m 19.1508,0 19.1508,0"
       similar_only="false"
       nbgenerations="1"
       drawall="true"
       maxComplexity="1000" />
    <marker
       style="overflow:visible"
       id="DotS"
       refX="0"
       refY="0"
       orient="auto"
       inkscape:stockid="DotS">
      <path
         transform="matrix(0.2,0,0,0.2,1.48,0.2)"
         style="fill-rule:evenodd;stroke:#000000;stroke-width:1pt"
         d="m -2.5,-1 c 0,2.76 -2.24,5 -5,5 -2.76,0 -5,-2.24 -5,-5 0,-2.76 2.24,-5 5,-5 2.76,0 5,2.24 5,5 z"
         id="path4380"
         inkscape:connector-curvature="0" />
    </marker>
    <marker
       style="overflow:visible"
       id="DotSd"
       refX="0"
       refY="0"
       orient="auto"
       inkscape:stockid="DotSd">
      <path
         transform="matrix(0.2,0,0,0.2,1.48,0.2)"
         style="fill:#3ce4ff;fill-rule:evenodd;stroke:#3ce4ff;stroke-width:1pt"
         d="m -2.5,-1 c 0,2.76 -2.24,5 -5,5 -2.76,0 -5,-2.24 -5,-5 0,-2.76 2.24,-5 5,-5 2.76,0 5,2.24 5,5 z"
         id="path5781"
         inkscape:connector-curvature="0" />
    </marker>
    <marker
       style="overflow:visible"
       id="DotSM"
       refX="0"
       refY="0"
       orient="auto"
       inkscape:stockid="DotSM">
      <path
         transform="matrix(0.2,0,0,0.2,1.48,0.2)"
         style="fill:#3ce4ff;fill-rule:evenodd;stroke:#3ce4ff;stroke-width:1pt"
         d="m -2.5,-1 c 0,2.76 -2.24,5 -5,5 -2.76,0 -5,-2.24 -5,-5 0,-2.76 2.24,-5 5,-5 2.76,0 5,2.24 5,5 z"
         id="path5784"
         inkscape:connector-curvature="0" />
    </marker>
    <marker
       style="overflow:visible"
       id="DotSZ"
       refX="0"
       refY="0"
       orient="auto"
       inkscape:stockid="DotSZ">
      <path
         transform="matrix(0.2,0,0,0.2,1.48,0.2)"
         style="fill:#3ce4ff;fill-rule:evenodd;stroke:#3ce4ff;stroke-width:1pt"
         d="m -2.5,-1 c 0,2.76 -2.24,5 -5,5 -2.76,0 -5,-2.24 -5,-5 0,-2.76 2.24,-5 5,-5 2.76,0 5,2.24 5,5 z"
         id="path5787"
         inkscape:connector-curvature="0" />
    </marker>
    <marker
       style="overflow:visible"
       id="DotS0"
       refX="0"
       refY="0"
       orient="auto"
       inkscape:stockid="DotS0">
      <path
         transform="matrix(0.2,0,0,0.2,1.48,0.2)"
         style="fill:#3ce4ff;fill-rule:evenodd;stroke:#3ce4ff;stroke-width:1pt"
         d="m -2.5,-1 c 0,2.76 -2.24,5 -5,5 -2.76,0 -5,-2.24 -5,-5 0,-2.76 2.24,-5 5,-5 2.76,0 5,2.24 5,5 z"
         id="path5790"
         inkscape:connector-curvature="0" />
    </marker>
    <marker
       style="overflow:visible"
       id="DotSw"
       refX="0"
       refY="0"
       orient="auto"
       inkscape:stockid="DotSw">
      <path
         transform="matrix(0.2,0,0,0.2,1.48,0.2)"
         style="fill:#3ce4ff;fill-rule:evenodd;stroke:#3ce4ff;stroke-width:1pt"
         d="m -2.5,-1 c 0,2.76 -2.24,5 -5,5 -2.76,0 -5,-2.24 -5,-5 0,-2.76 2.24,-5 5,-5 2.76,0 5,2.24 5,5 z"
         id="path5793"
         inkscape:connector-curvature="0" />
    </marker>
    <marker
       style="overflow:visible"
       id="DotSc"
       refX="0"
       refY="0"
       orient="auto"
       inkscape:stockid="DotSc">
      <path
         transform="matrix(0.2,0,0,0.2,1.48,0.2)"
         style="fill:#3ce4ff;fill-rule:evenodd;stroke:#3ce4ff;stroke-width:1pt"
         d="m -2.5,-1 c 0,2.76 -2.24,5 -5,5 -2.76,0 -5,-2.24 -5,-5 0,-2.76 2.24,-5 5,-5 2.76,0 5,2.24 5,5 z"
         id="path5796"
         inkscape:connector-curvature="0" />
    </marker>
    <marker
       style="overflow:visible"
       id="DotSe"
       refX="0"
       refY="0"
       orient="auto"
       inkscape:stockid="DotSe">
      <path
         transform="matrix(0.2,0,0,0.2,1.48,0.2)"
         style="fill:#3ce4ff;fill-rule:evenodd;stroke:#3ce4ff;stroke-width:1pt"
         d="m -2.5,-1 c 0,2.76 -2.24,5 -5,5 -2.76,0 -5,-2.24 -5,-5 0,-2.76 2.24,-5 5,-5 2.76,0 5,2.24 5,5 z"
         id="path5799"
         inkscape:connector-curvature="0" />
    </marker>
    <marker
       style="overflow:visible"
       id="DotSs"
       refX="0"
       refY="0"
       orient="auto"
       inkscape:stockid="DotSs">
      <path
         transform="matrix(0.2,0,0,0.2,1.48,0.2)"
         style="fill:#3ce4ff;fill-rule:evenodd;stroke:#3ce4ff;stroke-width:1pt"
         d="m -2.5,-1 c 0,2.76 -2.24,5 -5,5 -2.76,0 -5,-2.24 -5,-5 0,-2.76 2.24,-5 5,-5 2.76,0 5,2.24 5,5 z"
         id="path5802"
         inkscape:connector-curvature="0" />
    </marker>
  </defs>
  <metadata
     id="metadata7">
    <rdf:RDF>
      <cc:Work
         rdf:about="">
        <dc:format>image/svg+xml</dc:format>
        <dc:type
           rdf:resource="http://purl.org/dc/dcmitype/StillImage" />
        <dc:title></dc:title>
      </cc:Work>
    </rdf:RDF>
  </metadata>
  <g
     transform="translate(0,-28.3622)"
     id="layer1"
     inkscape:groupmode="layer"
     inkscape:label="Layer 1">
    <g
       id="g7286"
       transform="matrix(10.951082,0,0,10.951082,28891.918,13569.172)">
      <path
         sodipodi:type="arc"
         style="opacity:0.98999999;color:#000000;fill:#fff415;fill-opacity:1;stroke:none;stroke-width:8.30700016;marker:none;visibility:visible;display:inline;overflow:visible;enable-background:accumulate"
         id="path6183"
         sodipodi:cx="-525"
         sodipodi:cy="1308"
         sodipodi:rx="21"
         sodipodi:ry="21"
         d="m -504,1308 c 0,11.598 -9.40202,21 -21,21 -11.59798,0 -21,-9.402 -21,-21 0,-11.598 9.40202,-21 21,-21 11.59798,0 21,9.402 21,21 z"
         transform="matrix(1.8134168,0,0,1.8134168,-1639.4734,-3561.6773)"
         inkscape:export-filename="/data/projects/day-map/src/assets/sunny.png"
         inkscape:export-xdpi="90"
         inkscape:export-ydpi="90" />
    </g>
    <g
       inkscape:export-ydpi="90"
       inkscape:export-xdpi="90"
       inkscape:export-filename="/data/projects/day-map/src/assets/little_bird.png"
       transform="matrix(3.0103868,0.47202527,-0.47202527,3.0103868,9332.5844,4524.5608)"
       id="g8457">
      <path
         style="fill:#ff5599;fill-opacity:1;stroke:none"
         d="m -2553.3626,4953.1912 c 27.2864,-93.8771 158.8535,-85.3611 161.9275,12.7279 1.835,0.151 2.7204,0.078 3.7349,-0.2709 2.7681,-0.9515 17.2805,-9.8607 18.8177,-11.8663 0.5383,-0.7023 -5.7546,10.3255 -4.9819,9.9899 4.9271,-2.1399 8.5905,-5.5028 12.8348,-9.1664 -18.0203,28.6209 -49.2685,77.035 -100.4091,88.3883 -51.1406,11.3533 -81.3173,-34.6482 -81.3173,-34.6482 z"
         id="path7625"
         inkscape:connector-curvature="0"
         transform="matrix(0.66666667,0,0,0.66666667,-1322.9935,-4069.4096)"
         sodipodi:nodetypes="ccsssczcc" />
      <path
         sodipodi:nodetypes="cccc"
         style="fill:#ffdd55;stroke:none"
         d="m -2552.7832,4952.6072 -40.8845,32.9341 50.9117,22.981 z"
         id="path7627"
         inkscape:connector-curvature="0"
         transform="matrix(0.66666667,0,0,0.66666667,-1322.9935,-4069.4096)" />
      <path
         sodipodi:nodetypes="cccc"
         style="fill:#ffcc00;stroke:none"
         d="m -2547.709,4980.951 -45.4283,4.4135 50.5564,23.0291 z"
         id="path7629"
         inkscape:connector-curvature="0"
         transform="matrix(0.66666667,0,0,0.66666667,-1322.9935,-4069.4096)" />
      <path
         sodipodi:type="arc"
         style="color:#000000;fill:#550000;fill-opacity:1;fill-rule:nonzero;stroke:none;stroke-width:0.80000001;marker:none;visibility:visible;display:inline;overflow:visible;enable-background:accumulate"
         id="path8453"
         sodipodi:cx="-2514.4717"
         sodipodi:cy="4957.6104"
         sodipodi:rx="18.384777"
         sodipodi:ry="17.854446"
         d="m -2496.7009,4962.1862 c -2.6023,9.5314 -12.6681,15.2095 -22.4826,12.6823 -9.8145,-2.5272 -15.6612,-12.3026 -13.0589,-21.834 2.6022,-9.5314 12.668,-15.2095 22.4825,-12.6823 9.3766,2.4145 15.2082,11.4885 13.3222,20.7295"
         transform="matrix(0.59335054,-0.30394011,0.25279448,0.49350428,-2759.2098,-3979.8769)"
         sodipodi:start="0.25917942"
         sodipodi:end="6.4788544"
         sodipodi:open="true" />
      <path
         sodipodi:open="true"
         sodipodi:end="6.4788544"
         sodipodi:start="0.25917942"
         transform="matrix(0.59335054,-0.30394011,0.25279448,0.49350428,-2757.442,-3977.6377)"
         d="m -2496.7009,4962.1862 c -2.6023,9.5314 -12.6681,15.2095 -22.4826,12.6823 -9.8145,-2.5272 -15.6612,-12.3026 -13.0589,-21.834 2.6022,-9.5314 12.668,-15.2095 22.4825,-12.6823 9.3766,2.4145 15.2082,11.4885 13.3222,20.7295"
         sodipodi:ry="17.854446"
         sodipodi:rx="18.384777"
         sodipodi:cy="4957.6104"
         sodipodi:cx="-2514.4717"
         id="path8455"
         style="color:#000000;fill:#ff5599;fill-opacity:1;fill-rule:nonzero;stroke:none;stroke-width:0.80000001;marker:none;visibility:visible;display:inline;overflow:visible;enable-background:accumulate"
         sodipodi:type="arc" />
    </g>
  </g>
</svg>
